# xmcd
#
# Track frame offsets:
#	150
#	7980
#	18490
#	29627
#	41120
#	53045
#	63010
#	73387
#	85505
#	99245
#	110705
#	120517
#	133422
#	143285
#	153562
#	165225
#	176120
#	186870
#	198685
#	209377
#
# Disc length: 2944
#
# Revision: 2
# Processed by: cddbd v1.5.1PL0 Copyright (c) Steve Scherf et al.
# Submitted via: audiograbber 1.80
# Normalized: r1:TDELIM( - )
#
DISCID=170b7e14
DTITLE=Various Artist - Thats Rock'N' Roll
DYEAR=1900
DGENRE=
TTITLE0=The Coasters - Yakety Yak
TTITLE1=Chubby Chekter - Let's Twist Again
TTITLE2=Little Richard - Tutti Frutti
TTITLE3=Danny and The Juniors - Rock &Roll Is Here To Stay
TTITLE4=Gene Vincent - Be Bob A Lula
TTITLE5=Little Richard - Good Golly Miss Molly
TTITLE6=The Crystals - Da Doo Ron Ron
TTITLE7=Frankie Ford - Sea Cruise
TTITLE8=Fats Domino - Blueberry Hill
TTITLE9=Danny and The Juniors - At The Hop
TTITLE10=Bill Haley& The Comets - See You Later Aligator
TTITLE11=The Shagri- Las - The Leader Of The Pack
TTITLE12=Jonny and The Hurricanes - Red River Rock
TTITLE13=The Crystals - He's A Rebel
TTITLE14=Lloyd Price - Personality
TTITLE15=Little Richard - Lucille
TTITLE16=The Diamonds - Why Do Fools Fall In Love
TTITLE17=Del Shannon - Runaround Sue
TTITLE18=Lloyd Price - Stagger Lee
TTITLE19=Chubby Checkter - The Twist
EXTD=
EXTT0=
EXTT1=
EXTT2=
EXTT3=
EXTT4=
EXTT5=
EXTT6=
EXTT7=
EXTT8=
EXTT9=
EXTT10=
EXTT11=
EXTT12=
EXTT13=
EXTT14=
EXTT15=
EXTT16=
EXTT17=
EXTT18=
EXTT19=
PLAYORDER=
